<svg width="26" height="23" viewBox="0 0 26 23" fill="none" xmlns="http://www.w3.org/2000/svg">
<path d="M0.574953 0.000164314C0.257289 0.000164314 0 0.257663 0 0.575116C0 0.89278 0.257499 1.15007 0.574953 1.15007H3.6387C5.1083 4.78394 6.55023 8.42489 8.0052 12.0659L6.65753 15.3003C6.50993 15.6484 6.80934 16.1005 7.18756 16.0999H21.5627C21.8665 16.1043 22.1459 15.8287 22.1459 15.5249C22.1459 15.2211 21.8665 14.9455 21.5627 14.95H8.05007L9.02029 12.614L23.0453 11.4909C23.2851 11.4711 23.5017 11.2848 23.5575 11.0507L25.2826 3.5757C25.3574 3.24199 25.0676 2.87738 24.7254 2.87502H5.56187L4.55551 0.359377C4.47068 0.149409 4.25188 0.00120135 4.02548 0L0.574953 0.000164314ZM6.01953 4.02509H24.0064L22.533 10.3861L9.00242 11.4642L6.01953 4.02509ZM10.0625 17.8252C8.64027 17.8252 7.47511 18.9905 7.47511 20.4126C7.47511 21.8348 8.64048 23 10.0625 23C11.4848 23 12.65 21.8346 12.65 20.4126C12.65 18.9903 11.4846 17.8252 10.0625 17.8252ZM18.6876 17.8252C17.2653 17.8252 16.1002 18.9905 16.1002 20.4126C16.1002 21.8348 17.2655 23 18.6876 23C20.1099 23 21.275 21.8346 21.275 20.4126C21.275 18.9903 20.1097 17.8252 18.6876 17.8252ZM10.0625 18.9751C10.8633 18.9751 11.5 19.6118 11.5 20.4126C11.5 21.2134 10.8633 21.8501 10.0625 21.8501C9.26174 21.8501 8.62502 21.2134 8.62502 20.4126C8.62502 19.6118 9.26174 18.9751 10.0625 18.9751ZM18.6876 18.9751C19.4884 18.9751 20.1251 19.6118 20.1251 20.4126C20.1251 21.2134 19.4884 21.8501 18.6876 21.8501C17.8868 21.8501 17.2501 21.2134 17.2501 20.4126C17.2501 19.6118 17.8868 18.9751 18.6876 18.9751Z" fill="#3A3A3A"/>
</svg>
