<svg width="289" height="86" viewBox="0 0 289 86" fill="none" xmlns="http://www.w3.org/2000/svg">
<path d="M7.07812 73.1872C5.01615 73.1872 3.31106 72.558 1.96284 71.2996C0.65428 70.0793 0 68.1917 0 65.6368C0 63.7683 0.376707 61.9379 1.13012 60.1456C1.88353 58.3533 2.89469 56.7517 4.1636 55.3408C5.43251 53.8917 6.8402 52.7477 8.38669 51.9088C9.97282 51.0699 11.5788 50.6504 13.2046 50.6504C14.87 50.6504 16.0596 51.0508 16.7734 51.8516C17.5268 52.6524 17.9035 53.5867 17.9035 54.6544C17.9035 55.7221 17.6259 56.7708 17.0708 57.8004C16.5553 58.7919 15.8415 59.2876 14.9295 59.2876C14.1761 59.2876 13.5614 58.9253 13.0856 58.2008C13.4821 57.9339 13.8985 57.4381 14.3347 56.7136C14.7709 55.9891 14.989 55.0548 14.989 53.9108C14.989 53.6057 14.9097 53.3769 14.751 53.2244C14.5924 53.0337 14.295 52.9384 13.8588 52.9384C12.8675 52.9384 11.8167 53.3769 10.7064 54.254C9.63577 55.0929 8.6246 56.1988 7.67292 57.5716C6.7609 58.9063 6.00748 60.3363 5.41268 61.8616C4.85754 63.3488 4.57996 64.7216 4.57996 65.98C4.57996 67.0477 4.85754 68.0392 5.41268 68.9544C6.00748 69.8315 7.1376 70.27 8.80305 70.27C10.3099 70.27 11.8762 69.8505 13.502 69.0116C15.1278 68.1727 16.6544 67.0096 18.0819 65.5224C19.5095 63.9971 20.6594 62.1857 21.5318 60.0884L22.7214 61.118C21.7697 63.4441 20.4413 65.5224 18.7362 67.3528C17.0708 69.1451 15.2071 70.556 13.1451 71.5856C11.1228 72.6533 9.10044 73.1872 7.07812 73.1872Z" fill="black"/>
<path d="M22.9003 72.1576C22.0279 72.1576 21.3934 71.5093 20.9969 70.2128C20.64 68.9163 20.4616 67.41 20.4616 65.694C20.4616 63.9399 20.759 61.8235 21.3538 59.3448C21.9882 56.8661 22.821 54.254 23.852 51.5084C24.9226 48.7628 26.0924 46.0744 27.3613 43.4432C28.6698 40.812 29.9982 38.4287 31.3464 36.2932C32.7343 34.1196 34.0429 32.3845 35.2721 31.088C36.541 29.7915 37.6513 29.1432 38.603 29.1432C39.4357 29.1432 40.0702 29.5817 40.5064 30.4588C40.9426 31.3359 41.1606 32.2511 41.1606 33.2044C41.1606 34.234 40.9029 35.5115 40.3874 37.0368C39.9116 38.524 39.2375 40.1256 38.3651 41.8416C37.4927 43.5576 36.4617 45.2545 35.2721 46.9324C34.1222 48.5721 32.8533 50.0784 31.4654 51.4512C30.1172 52.824 28.7095 53.9299 27.2423 54.7688C26.7268 56.0653 26.3105 57.2856 25.9932 58.4296C25.7157 59.5355 25.5174 60.5841 25.3984 61.5756C25.2795 62.5671 25.22 63.5395 25.22 64.4928C25.22 64.6835 25.22 64.8932 25.22 65.122C25.2596 65.3127 25.2795 65.5033 25.2795 65.694C25.4381 65.4652 25.6958 64.8741 26.0527 63.9208C26.4096 62.9675 26.8854 61.8616 27.4802 60.6032C28.1147 59.3067 28.8879 58.0483 29.8 56.828C30.712 55.5696 31.7826 54.54 33.0119 53.7392C34.2411 52.9003 35.6488 52.4808 37.235 52.4808C38.5832 52.4808 39.634 52.7859 40.3874 53.396C41.1408 53.968 41.6761 54.6925 41.9934 55.5696C42.3106 56.4085 42.4692 57.2665 42.4692 58.1436C42.4692 59.3639 42.2511 60.5079 41.8149 61.5756C41.4184 62.6433 41.002 63.6539 40.5658 64.6072C40.1693 65.5224 39.971 66.3995 39.971 67.2384C39.971 67.9248 40.1297 68.4015 40.4469 68.6684C40.7641 68.9353 41.1408 69.0688 41.577 69.0688C42.4494 69.0688 43.4605 68.6493 44.6105 67.8104C45.8001 66.9715 46.9699 65.8656 48.1198 64.4928C49.3094 63.0819 50.3206 61.5375 51.1533 59.8596L52.105 60.832C51.1929 62.7387 50.1223 64.4928 48.8931 66.0944C47.6638 67.696 46.3156 68.9735 44.8484 69.9268C43.3812 70.8801 41.7951 71.3568 40.09 71.3568C38.5832 71.3568 37.4332 70.9755 36.6402 70.2128C35.8471 69.4501 35.4506 68.4968 35.4506 67.3528C35.4506 66.552 35.5893 65.6749 35.8669 64.7216C36.1842 63.7301 36.4815 62.7387 36.7591 61.7472C37.0367 60.7557 37.1755 59.8596 37.1755 59.0588C37.1755 58.1436 36.9574 57.5144 36.5212 57.1712C36.1247 56.828 35.629 56.6564 35.0342 56.6564C34.0429 56.6564 33.1507 57.0377 32.3576 57.8004C31.5645 58.5249 30.8508 59.4783 30.2163 60.6604C29.5819 61.8425 28.9871 63.1009 28.4319 64.4356C27.8768 65.7321 27.3216 66.9715 26.7665 68.1536C26.2113 69.3357 25.6165 70.2891 24.9821 71.0136C24.3873 71.7763 23.6933 72.1576 22.9003 72.1576ZM28.4914 51.108C29.5224 50.2309 30.5137 49.1823 31.4654 47.962C32.4171 46.7417 33.2895 45.4833 34.0825 44.1868C34.9152 42.8521 35.629 41.5747 36.2238 40.3544C36.8583 39.096 37.3539 37.9711 37.7108 36.9796C38.0677 35.9881 38.2659 35.2255 38.3056 34.6916C38.3056 34.6535 38.3056 34.6344 38.3056 34.6344C38.3056 34.5963 38.3056 34.5581 38.3056 34.52C38.0677 34.52 37.5522 34.9967 36.7591 35.95C36.0057 36.8652 35.1135 38.1236 34.0825 39.7252C33.0912 41.2887 32.08 43.0619 31.049 45.0448C30.0577 47.0277 29.2052 49.0488 28.4914 51.108Z" fill="black"/>
<path d="M54.3141 71.7C52.5693 71.7 51.2608 71.2043 50.3884 70.2128C49.516 69.2213 49.0798 68.0201 49.0798 66.6092C49.0798 65.7321 49.2385 64.6263 49.5557 63.2916C49.8729 61.9569 50.3091 60.5651 50.8643 59.116C51.4591 57.6288 52.1332 56.2369 52.8866 54.9404C53.64 53.6439 54.4529 52.5952 55.3253 51.7944C56.1976 50.9555 57.07 50.536 57.9424 50.536C58.4182 50.536 58.8346 50.6885 59.1915 50.9936C59.5483 51.2605 59.7268 51.6609 59.7268 52.1948C59.7268 52.6905 59.4095 53.4341 58.7751 54.4256C58.1803 55.4171 57.4665 56.5611 56.6338 57.8576C55.8408 59.1541 55.127 60.5079 54.4925 61.9188C53.8977 63.2916 53.6003 64.6072 53.6003 65.8656C53.6003 67.0859 53.8184 67.9057 54.2546 68.3252C54.7305 68.7065 55.4046 68.8972 56.2769 68.8972C57.6252 68.8972 59.0923 68.2489 60.6785 66.9524C62.2646 65.6559 63.9102 63.3869 65.6153 60.1456L66.5075 61.0608C65.1196 64.4165 63.3551 67.0287 61.2138 68.8972C59.0725 70.7657 56.7726 71.7 54.3141 71.7Z" fill="black"/>
<path d="M69.6683 71.7C67.8046 71.7 66.4167 71.1089 65.5047 69.9268C64.6323 68.7447 64.1961 67.2193 64.1961 65.3508C64.1961 63.5585 64.553 61.4231 65.2668 58.9444C65.9805 56.4657 66.9124 53.8536 68.0623 51.108C69.2519 48.3624 70.5407 45.674 71.9285 43.0428C73.3561 40.4116 74.7836 38.0283 76.2111 35.8928C77.6386 33.7192 78.9472 32.0032 80.1368 30.7448C81.3661 29.4483 82.3574 28.8 83.1108 28.8C83.6263 28.8 84.0625 29.0669 84.4194 29.6008C84.7762 30.0965 85.0538 30.7067 85.2521 31.4312C85.49 32.1557 85.609 32.8421 85.609 33.4904C85.609 34.4819 85.3314 35.7975 84.7762 37.4372C84.2607 39.0388 83.5073 40.812 82.516 42.7568C81.5643 44.7016 80.4144 46.7036 79.0662 48.7628C77.7576 50.7839 76.2904 52.7287 74.6646 54.5972C73.0785 56.4276 71.3734 58.0292 69.5493 59.402C69.3907 60.3553 69.2321 61.3659 69.0735 62.4336C68.9545 63.4632 68.8951 64.3593 68.8951 65.122C68.8951 67.7532 69.7476 69.0688 71.4527 69.0688C72.3251 69.0688 73.2173 68.7256 74.1293 68.0392C75.081 67.3147 75.993 66.3804 76.8654 65.2364C77.7378 64.0543 78.5308 62.7768 79.2446 61.404C79.6411 59.4592 80.2359 57.3619 81.029 55.112C81.8221 52.8621 82.7341 50.6123 83.7651 48.3624C84.8357 46.0744 85.9658 43.9008 87.1554 41.8416C88.345 39.7443 89.5148 37.8948 90.6648 36.2932C91.8147 34.6535 92.8655 33.376 93.8172 32.4608C94.8085 31.5075 95.6214 31.0308 96.2559 31.0308C96.7714 31.0308 97.2076 31.2977 97.5644 31.8316C97.961 32.3273 98.2584 32.9565 98.4566 33.7192C98.6946 34.4437 98.8135 35.1492 98.8135 35.8356C98.8135 37.0177 98.4765 38.5812 97.8024 40.526C97.1283 42.4327 96.1568 44.53 94.8878 46.818C93.6586 49.0679 92.1518 51.2987 90.3674 53.5104C88.583 55.7221 86.5606 57.686 84.3004 59.402C84.1021 60.2791 83.9435 61.2133 83.8246 62.2048C83.7056 63.1963 83.6461 64.0733 83.6461 64.836C83.6461 67.6579 84.459 69.0688 86.0848 69.0688C87.1158 69.0688 88.1666 68.6303 89.2372 67.7532C90.3079 66.838 91.319 65.6749 92.2707 64.264C93.2224 62.8531 94.0353 61.4231 94.7094 59.974L96.1964 60.7176C94.531 64.1115 92.7069 66.7999 90.7242 68.7828C88.7812 70.7276 86.6399 71.7 84.3004 71.7C82.4763 71.7 81.1281 71.128 80.2558 69.984C79.3834 68.84 78.9274 67.3528 78.8877 65.5224C77.5395 67.4672 76.0921 68.9735 74.5457 70.0412C73.0388 71.1471 71.4131 71.7 69.6683 71.7ZM70.62 56.1988C71.9286 54.8641 73.1776 53.396 74.3672 51.7944C75.5965 50.1547 76.7266 48.4959 77.7576 46.818C78.7886 45.1401 79.6808 43.5195 80.4342 41.956C81.2273 40.3925 81.8419 38.9816 82.2781 37.7232C82.7143 36.4648 82.9324 35.4733 82.9324 34.7488C82.9324 34.5581 82.9324 34.4056 82.9324 34.2912C82.9324 34.1768 82.8927 34.1005 82.8134 34.0624C82.5358 34.0624 82.0402 34.5009 81.3264 35.378C80.6126 36.2169 79.7799 37.38 78.8282 38.8672C77.9162 40.3544 76.9447 42.0513 75.9137 43.958C74.9224 45.8265 73.9509 47.8285 72.9992 49.964C72.0872 52.0613 71.2941 54.1396 70.62 56.1988ZM85.2521 56.256C86.8382 54.6544 88.2856 52.9384 89.5941 51.108C90.9423 49.2395 92.0923 47.4091 93.044 45.6168C94.0353 43.7864 94.7887 42.1276 95.3042 40.6404C95.8594 39.1151 96.1369 37.9139 96.1369 37.0368C96.1369 36.8461 96.1369 36.7127 96.1369 36.6364C96.1369 36.522 96.1171 36.4267 96.0774 36.3504C95.6809 36.3504 95.0465 36.9033 94.1741 38.0092C93.3414 39.1151 92.3897 40.6213 91.319 42.528C90.2484 44.3965 89.1778 46.5129 88.1071 48.8772C87.0365 51.2415 86.0848 53.7011 85.2521 56.256Z" fill="black"/>
<path d="M97.9947 71.7C96.25 71.7 94.9414 71.2043 94.0691 70.2128C93.1967 69.2213 92.7605 68.0201 92.7605 66.6092C92.7605 65.7321 92.9191 64.6263 93.2363 63.2916C93.5536 61.9569 93.9898 60.5651 94.5449 59.116C95.1397 57.6288 95.8138 56.2369 96.5672 54.9404C97.3206 53.6439 98.1335 52.5952 99.0059 51.7944C99.8783 50.9555 100.751 50.536 101.623 50.536C102.099 50.536 102.515 50.6885 102.872 50.9936C103.229 51.2605 103.407 51.6609 103.407 52.1948C103.407 52.6905 103.09 53.4341 102.456 54.4256C101.861 55.4171 101.147 56.5611 100.314 57.8576C99.5214 59.1541 98.8076 60.5079 98.1732 61.9188C97.5784 63.2916 97.281 64.6072 97.281 65.8656C97.281 67.0859 97.4991 67.9057 97.9353 68.3252C98.4111 68.7065 99.0852 68.8972 99.9576 68.8972C101.306 68.8972 102.773 68.2489 104.359 66.9524C105.945 65.6559 107.591 63.3869 109.296 60.1456L110.188 61.0608C108.8 64.4165 107.036 67.0287 104.894 68.8972C102.753 70.7657 100.453 71.7 97.9947 71.7ZM105.013 45.9028C104.26 45.9028 103.566 45.7312 102.932 45.388C102.337 45.0067 102.039 44.4347 102.039 43.672C102.039 42.7568 102.555 41.9751 103.586 41.3268C104.617 40.6785 105.688 40.3544 106.798 40.3544C107.512 40.3544 108.106 40.5069 108.582 40.812C109.098 41.1171 109.355 41.67 109.355 42.4708C109.355 43.2716 108.899 44.0533 107.987 44.816C107.075 45.5405 106.084 45.9028 105.013 45.9028Z" fill="black"/>
<path d="M127.803 71.128C126.256 71.128 125.067 70.7467 124.234 69.984C123.441 69.2595 123.044 68.3252 123.044 67.1812C123.044 66.4185 123.183 65.6177 123.461 64.7788C123.738 63.9017 124.016 63.0247 124.293 62.1476C124.571 61.2705 124.71 60.4316 124.71 59.6308C124.71 58.7919 124.492 58.2199 124.055 57.9148C123.659 57.5716 123.183 57.4 122.628 57.4C121.438 57.4 120.209 57.8767 118.94 58.83C117.711 59.7452 116.501 60.9083 115.312 62.3192C114.162 63.7301 113.071 65.1983 112.04 66.7236C111.009 68.2489 110.117 69.6217 109.364 70.842C108.61 70.842 107.897 70.7085 107.223 70.4416C106.548 70.2128 105.973 69.7933 105.498 69.1832C105.537 68.9925 105.775 68.4205 106.211 67.4672C106.608 66.4757 107.064 65.3127 107.579 63.978C108.095 62.6052 108.551 61.1752 108.947 59.688C109.344 58.2008 109.542 56.8471 109.542 55.6268C109.82 55.3217 110.236 55.0167 110.791 54.7116C111.386 54.4065 112.001 54.254 112.635 54.254C114.023 54.254 114.717 54.826 114.717 55.97C114.717 56.4276 114.618 57.114 114.42 58.0292C114.261 58.9063 114.023 59.9168 113.706 61.0608C114.737 59.7261 115.867 58.4677 117.096 57.2856C118.325 56.1035 119.594 55.1501 120.903 54.4256C122.251 53.6629 123.599 53.2816 124.948 53.2816C126.653 53.2816 127.902 53.8345 128.695 54.9404C129.528 56.0463 129.944 57.2665 129.944 58.6012C129.944 59.7452 129.746 60.8129 129.349 61.8044C128.953 62.7959 128.556 63.7301 128.159 64.6072C127.803 65.4843 127.624 66.3423 127.624 67.1812C127.624 67.7913 127.763 68.2299 128.041 68.4968C128.358 68.7256 128.695 68.84 129.052 68.84C130.003 68.84 130.995 68.4015 132.026 67.5244C133.057 66.6473 134.028 65.5415 134.94 64.2068C135.892 62.834 136.725 61.4612 137.438 60.0884L138.45 60.8892C137.617 62.7577 136.665 64.4737 135.594 66.0372C134.564 67.5625 133.394 68.8019 132.085 69.7552C130.816 70.6704 129.389 71.128 127.803 71.128Z" fill="black"/>
<path d="M138.845 86C137.854 86 136.922 85.714 136.05 85.142C135.217 84.57 134.801 83.6357 134.801 82.3392C134.801 81.1189 135.158 80.0131 135.871 79.0216C136.625 78.0683 137.596 77.1721 138.786 76.3332C140.015 75.5324 141.324 74.7888 142.712 74.1024C144.1 73.416 145.448 72.7677 146.756 72.1576C147.192 71.128 147.609 70.0221 148.005 68.84C148.402 67.6579 148.779 66.3804 149.135 65.0076C147.748 66.6855 146.28 68.0773 144.734 69.1832C143.227 70.2891 141.681 70.842 140.095 70.842C138.508 70.842 137.239 70.3081 136.288 69.2404C135.376 68.1727 134.92 66.7617 134.92 65.0076C134.92 62.9865 135.435 61.0989 136.466 59.3448C137.537 57.5525 138.905 55.97 140.57 54.5972C142.236 53.1863 144.02 52.0995 145.924 51.3368C147.827 50.536 149.651 50.1356 151.396 50.1356C152.665 50.1356 153.616 50.3644 154.251 50.822C154.885 51.2415 155.202 51.7372 155.202 52.3092C155.202 52.7668 155.064 53.1291 154.786 53.396C154.509 53.6629 154.33 53.8155 154.251 53.8536C153.854 53.4341 153.438 53.1672 153.002 53.0528C152.605 52.9003 152.129 52.824 151.574 52.824C150.028 52.824 148.541 53.2435 147.113 54.0824C145.686 54.9213 144.417 56.0081 143.306 57.3428C142.236 58.6393 141.383 59.9931 140.749 61.404C140.114 62.8149 139.797 64.0924 139.797 65.2364C139.797 65.9991 139.976 66.5901 140.332 67.0096C140.689 67.3909 141.126 67.5816 141.641 67.5816C142.751 67.5816 144.1 66.8952 145.686 65.5224C147.272 64.1115 148.798 62.4145 150.266 60.4316C150.345 60.1265 150.404 59.8596 150.444 59.6308C150.523 59.3639 150.583 59.116 150.622 58.8872C151.019 57.3619 151.495 56.2369 152.05 55.5124C152.605 54.7879 153.378 54.4256 154.37 54.4256C154.568 54.4256 154.806 54.4447 155.083 54.4828C155.401 54.5209 155.738 54.5781 156.095 54.6544C156.095 55.3408 155.896 56.4657 155.5 58.0292C155.103 59.5927 154.568 61.4231 153.894 63.5204C153.22 65.5796 152.466 67.696 151.634 69.8696C152.863 69.3739 154.112 68.6875 155.381 67.8104C156.65 66.8952 157.82 65.8084 158.89 64.55C159.961 63.2535 160.774 61.8235 161.329 60.26L162.4 61.2896C161.765 63.0437 160.774 64.6453 159.426 66.0944C158.117 67.5435 156.689 68.8019 155.143 69.8696C153.596 70.8992 152.169 71.7 150.86 72.272C149.79 74.7888 148.62 77.0768 147.351 79.136C146.122 81.2333 144.793 82.8922 143.366 84.1124C141.978 85.3708 140.471 86 138.845 86ZM138.608 83.3688C139.321 83.3688 140.293 82.7205 141.522 81.424C142.791 80.1275 144.159 77.9348 145.626 74.846C144.159 75.5324 142.811 76.2379 141.582 76.9624C140.352 77.687 139.361 78.4496 138.608 79.2504C137.854 80.0512 137.477 80.8901 137.477 81.7672C137.477 82.263 137.577 82.6443 137.775 82.9112C138.013 83.2163 138.29 83.3688 138.608 83.3688Z" fill="black"/>
<path d="M178.048 72.1576C177.176 72.1576 176.541 71.5093 176.145 70.2128C175.788 68.9163 175.609 67.41 175.609 65.694C175.609 63.9399 175.907 61.8235 176.501 59.3448C177.136 56.8661 177.969 54.254 179 51.5084C180.07 48.7628 181.24 46.0744 182.509 43.4432C183.817 40.812 185.146 38.4287 186.494 36.2932C187.882 34.1196 189.19 32.3845 190.42 31.088C191.689 29.7915 192.799 29.1432 193.751 29.1432C194.583 29.1432 195.218 29.5817 195.654 30.4588C196.09 31.3359 196.308 32.2511 196.308 33.2044C196.308 34.234 196.051 35.5115 195.535 37.0368C195.059 38.524 194.385 40.1256 193.513 41.8416C192.64 43.5576 191.609 45.2545 190.42 46.9324C189.27 48.5721 188.001 50.0784 186.613 51.4512C185.265 52.824 183.857 53.9299 182.39 54.7688C181.874 56.0653 181.458 57.2856 181.141 58.4296C180.863 59.5355 180.665 60.5841 180.546 61.5756C180.427 62.5671 180.368 63.5395 180.368 64.4928C180.368 64.6835 180.368 64.8932 180.368 65.122C180.407 65.3127 180.427 65.5033 180.427 65.694C180.586 65.4652 180.843 64.8741 181.2 63.9208C181.557 62.9675 182.033 61.8616 182.628 60.6032C183.262 59.3067 184.036 58.0483 184.948 56.828C185.86 55.5696 186.93 54.54 188.16 53.7392C189.389 52.9003 190.796 52.4808 192.383 52.4808C193.731 52.4808 194.782 52.7859 195.535 53.396C196.288 53.968 196.824 54.6925 197.141 55.5696C197.458 56.4085 197.617 57.2665 197.617 58.1436C197.617 59.3639 197.399 60.5079 196.963 61.5756C196.566 62.6433 196.15 63.6539 195.713 64.6072C195.317 65.5224 195.119 66.3995 195.119 67.2384C195.119 67.9248 195.277 68.4015 195.595 68.6684C195.912 68.9353 196.288 69.0688 196.725 69.0688C197.597 69.0688 198.608 68.6493 199.758 67.8104C200.948 66.9715 202.117 65.8656 203.267 64.4928C204.457 63.0819 205.468 61.5375 206.301 59.8596L207.253 60.832C206.341 62.7387 205.27 64.4928 204.041 66.0944C202.811 67.696 201.463 68.9735 199.996 69.9268C198.529 70.8801 196.943 71.3568 195.238 71.3568C193.731 71.3568 192.581 70.9755 191.788 70.2128C190.995 69.4501 190.598 68.4968 190.598 67.3528C190.598 66.552 190.737 65.6749 191.015 64.7216C191.332 63.7301 191.629 62.7387 191.907 61.7472C192.184 60.7557 192.323 59.8596 192.323 59.0588C192.323 58.1436 192.105 57.5144 191.669 57.1712C191.272 56.828 190.777 56.6564 190.182 56.6564C189.19 56.6564 188.298 57.0377 187.505 57.8004C186.712 58.5249 185.998 59.4783 185.364 60.6604C184.729 61.8425 184.135 63.1009 183.58 64.4356C183.024 65.7321 182.469 66.9715 181.914 68.1536C181.359 69.3357 180.764 70.2891 180.13 71.0136C179.535 71.7763 178.841 72.1576 178.048 72.1576ZM183.639 51.108C184.67 50.2309 185.661 49.1823 186.613 47.962C187.565 46.7417 188.437 45.4833 189.23 44.1868C190.063 42.8521 190.777 41.5747 191.371 40.3544C192.006 39.096 192.502 37.9711 192.858 36.9796C193.215 35.9881 193.414 35.2255 193.453 34.6916C193.453 34.6535 193.453 34.6344 193.453 34.6344C193.453 34.5963 193.453 34.5581 193.453 34.52C193.215 34.52 192.7 34.9967 191.907 35.95C191.153 36.8652 190.261 38.1236 189.23 39.7252C188.239 41.2887 187.228 43.0619 186.197 45.0448C185.205 47.0277 184.353 49.0488 183.639 51.108Z" fill="black"/>
<path d="M208.629 71.8144C206.845 71.8144 205.615 71.2424 204.941 70.0984C204.307 68.9925 203.99 67.7723 203.99 66.4376C203.99 65.2173 204.188 63.978 204.584 62.7196C204.981 61.4231 205.516 60.2219 206.19 59.116C206.904 58.0101 207.677 57.1331 208.51 56.4848C209.382 55.7984 210.255 55.4552 211.127 55.4552C211.405 55.4552 211.722 55.5124 212.079 55.6268C212.475 55.7031 212.753 55.8365 212.912 56.0272C212.436 56.5992 211.94 57.3047 211.425 58.1436C210.949 58.9825 210.493 59.8787 210.057 60.832C209.66 61.7472 209.343 62.6815 209.105 63.6348C208.867 64.5881 208.748 65.4652 208.748 66.266C208.748 67.0287 208.887 67.6579 209.164 68.1536C209.482 68.6493 210.017 68.8972 210.77 68.8972C211.524 68.8972 212.416 68.4968 213.447 67.696C214.518 66.8571 215.529 65.9037 216.48 64.836C215.211 63.7301 214.299 62.5289 213.744 61.2324C213.189 59.8977 212.912 58.2961 212.912 56.4276C212.912 55.6268 213.11 54.7116 213.506 53.682C213.943 52.6524 214.617 51.7563 215.529 50.9936C216.48 50.2309 217.749 49.8496 219.335 49.8496C221.04 49.8496 222.23 50.3072 222.904 51.2224C223.618 52.1376 223.975 53.2244 223.975 54.4828C223.975 55.8937 223.578 57.4763 222.785 59.2304C222.032 60.9845 221.12 62.6433 220.049 64.2068C220.525 64.4356 221.08 64.55 221.715 64.55C222.309 64.55 223.023 64.4165 223.856 64.1496C224.689 63.8827 225.501 63.4441 226.295 62.834C227.088 62.1857 227.722 61.3277 228.198 60.26L229.269 61.0036C228.396 62.9484 227.226 64.3784 225.759 65.2936C224.332 66.1707 222.924 66.6092 221.536 66.6092C221.021 66.6092 220.505 66.5711 219.99 66.4948C219.474 66.3804 218.998 66.2469 218.562 66.0944C217.214 67.6197 215.667 68.9544 213.923 70.0984C212.178 71.2424 210.413 71.8144 208.629 71.8144ZM218.027 63.0056C218.979 61.6709 219.791 60.2409 220.466 58.7156C221.14 57.1903 221.477 55.7793 221.477 54.4828C221.477 53.6057 221.338 52.9765 221.06 52.5952C220.783 52.1757 220.366 51.966 219.811 51.966C219.058 51.966 218.285 52.4808 217.492 53.5104C216.698 54.54 216.302 55.8365 216.302 57.4C216.302 58.2008 216.441 59.1732 216.718 60.3172C217.036 61.4612 217.472 62.3573 218.027 63.0056Z" fill="black"/>
<path d="M257.942 71.7572C256.396 71.7572 255.246 71.3187 254.492 70.4416C253.739 69.5645 253.362 68.5159 253.362 67.2956C253.362 66.4185 253.501 65.5415 253.779 64.6644C254.056 63.7873 254.334 62.9293 254.611 62.0904C254.889 61.2133 255.028 60.4316 255.028 59.7452C255.028 59.0969 254.889 58.6584 254.611 58.4296C254.373 58.1627 254.056 58.0292 253.66 58.0292C252.748 58.0292 251.677 58.6965 250.448 60.0312C249.258 61.3659 247.771 63.3107 245.987 65.8656C245.352 66.7808 244.757 67.7532 244.202 68.7828C243.647 69.7743 243.151 70.6132 242.715 71.2996C242.358 71.2996 241.883 71.2424 241.288 71.128C240.733 71.0136 240.237 70.842 239.801 70.6132C239.365 70.4225 239.146 70.1556 239.146 69.8124C239.146 69.4692 239.345 68.8019 239.741 67.8104C240.138 66.8189 240.594 65.6749 241.109 64.3784C241.625 63.0437 242.081 61.7472 242.477 60.4888C242.874 59.1923 243.072 58.1055 243.072 57.2284C243.072 56.6945 242.973 56.2751 242.775 55.97C242.576 55.6649 242.259 55.5124 241.823 55.5124C240.99 55.5124 239.979 55.9891 238.79 56.9424C237.64 57.8957 236.41 59.1541 235.102 60.7176C233.833 62.2429 232.623 63.9589 231.473 65.8656C230.363 67.7341 229.451 69.6217 228.737 71.5284C228.301 71.5284 227.766 71.4331 227.131 71.2424C226.497 71.0899 225.942 70.8801 225.466 70.6132C224.99 70.3844 224.752 70.1747 224.752 69.984C224.752 69.9459 224.891 69.412 225.169 68.3824C225.446 67.3147 225.783 65.9991 226.18 64.4356C226.576 62.8721 226.993 61.2705 227.429 59.6308C227.865 57.9911 228.242 56.5611 228.559 55.3408C228.678 54.9213 229.114 54.5591 229.868 54.254C230.621 53.9108 231.275 53.7392 231.83 53.7392C232.386 53.7392 232.861 53.9108 233.258 54.254C233.654 54.5972 233.853 55.0548 233.853 55.6268C233.853 56.0081 233.773 56.5611 233.615 57.2856C233.456 58.0101 233.258 58.83 233.02 59.7452C233.853 58.6775 234.725 57.6288 235.637 56.5992C236.589 55.5315 237.56 54.5781 238.552 53.7392C239.583 52.9003 240.594 52.2329 241.585 51.7372C242.616 51.2415 243.627 50.9936 244.619 50.9936C246.086 50.9936 247.077 51.5084 247.593 52.538C248.108 53.5295 248.366 54.6163 248.366 55.7984C248.366 56.2941 248.326 56.7899 248.247 57.2856C248.168 57.7432 248.049 58.2199 247.89 58.7156C247.771 59.1732 247.593 59.7261 247.355 60.3744C248.108 59.3067 248.921 58.3343 249.793 57.4572C250.705 56.542 251.677 55.8175 252.708 55.2836C253.739 54.7497 254.829 54.4828 255.979 54.4828C257.526 54.4828 258.596 54.9404 259.191 55.8556C259.786 56.7327 260.083 57.7051 260.083 58.7728C260.083 59.7643 259.905 60.8129 259.548 61.9188C259.231 62.9865 258.894 64.0161 258.537 65.0076C258.22 65.9609 258.061 66.7808 258.061 67.4672C258.061 67.8485 258.16 68.2108 258.358 68.554C258.557 68.8591 258.953 69.0116 259.548 69.0116C260.619 69.0116 261.65 68.5349 262.641 67.5816C263.632 66.6283 264.544 65.4652 265.377 64.0924C266.249 62.6815 266.983 61.3468 267.578 60.0884L268.589 61.2896C267.955 62.8531 267.122 64.4547 266.091 66.0944C265.1 67.696 263.93 69.0307 262.582 70.0984C261.233 71.2043 259.687 71.7572 257.942 71.7572Z" fill="black"/>
<path d="M273 72.5008C270.462 72.5008 268.499 71.8335 267.111 70.4988C265.763 69.2023 265.089 67.5625 265.089 65.5796C265.089 63.9017 265.525 62.1285 266.398 60.26C267.31 58.3533 268.519 56.5801 270.026 54.9404C271.533 53.2625 273.198 51.9088 275.022 50.8792C276.846 49.8496 278.67 49.3348 280.494 49.3348C281.525 49.3348 282.497 49.6017 283.409 50.1356C284.361 50.6313 284.836 51.6419 284.836 53.1672C284.836 54.6163 284.4 55.97 283.528 57.2284C282.655 58.4868 281.486 59.6117 280.018 60.6032C278.551 61.5947 276.926 62.4145 275.141 63.0628C273.396 63.6729 271.632 64.0733 269.847 64.264C269.808 64.4165 269.768 64.5881 269.728 64.7788C269.728 64.9313 269.728 65.1983 269.728 65.5796C269.728 65.7703 269.748 66.1135 269.788 66.6092C269.867 67.0668 270.046 67.5625 270.323 68.0964C270.601 68.6303 271.057 69.0879 271.691 69.4692C272.326 69.8505 273.198 70.0412 274.308 70.0412C275.974 70.0412 277.639 69.6027 279.305 68.7256C281.01 67.8104 282.596 66.6092 284.063 65.122C285.57 63.6348 286.819 61.976 287.81 60.1456L289 61.0608C287.929 63.3488 286.541 65.3508 284.836 67.0668C283.171 68.7828 281.307 70.1175 279.245 71.0708C277.223 72.0241 275.141 72.5008 273 72.5008ZM270.502 62.1476C271.533 62.0332 272.683 61.69 273.952 61.118C275.22 60.546 276.43 59.8215 277.58 58.9444C278.769 58.0673 279.741 57.114 280.494 56.0844C281.248 55.0167 281.624 53.9489 281.624 52.8812C281.624 52.4617 281.545 52.1757 281.387 52.0232C281.228 51.8707 280.97 51.7944 280.613 51.7944C279.701 51.7944 278.75 52.1185 277.758 52.7668C276.767 53.3769 275.795 54.1968 274.844 55.2264C273.892 56.2179 273.04 57.3237 272.286 58.544C271.533 59.7643 270.938 60.9655 270.502 62.1476Z" fill="black"/>
<path d="M127.636 7.3902C128.205 7.3902 128.618 7.48516 128.873 7.67508C129.14 7.865 129.274 8.16664 129.274 8.58C129.274 8.97102 129.152 9.26707 128.908 9.46817C128.664 9.65809 128.298 9.75305 127.81 9.75305H120.753V15.3502C120.753 17.1824 120.997 18.3889 121.485 18.9699C121.984 19.5508 122.832 19.8413 124.029 19.8413C125.086 19.8413 126.352 19.5452 127.828 18.9531C129.303 18.361 130.215 18.0649 130.563 18.0649C130.889 18.0649 131.162 18.1766 131.382 18.4001C131.615 18.6235 131.731 18.8972 131.731 19.2212C131.731 19.5899 131.586 19.9139 131.295 20.1932C131.017 20.4613 130.534 20.7238 129.849 20.9808C128.711 21.4165 127.682 21.7349 126.765 21.936C125.859 22.1371 125.005 22.2376 124.203 22.2376C122.844 22.2376 121.7 22.0309 120.77 21.6176C119.852 21.1931 119.167 20.5674 118.714 19.7407C118.482 19.3497 118.313 18.8861 118.209 18.3498C118.116 17.8136 118.069 16.9868 118.069 15.8697V9.75305H115.107C114.619 9.75305 114.265 9.66368 114.044 9.48493C113.823 9.295 113.713 8.99336 113.713 8.58C113.713 8.12196 113.864 7.80914 114.166 7.64157C114.468 7.47399 115.113 7.3902 116.1 7.3902H118.069V3.06668C118.069 2.58629 118.174 2.23438 118.383 2.01094C118.604 1.77633 118.94 1.65902 119.394 1.65902C119.905 1.65902 120.259 1.79867 120.457 2.07797C120.654 2.35727 120.753 2.99406 120.753 3.98836V7.3902H127.636Z" fill="black"/>
<path d="M137.76 19.5731V2.41313H137.429C136.639 2.41313 136.093 2.32375 135.791 2.145C135.501 1.96625 135.356 1.65344 135.356 1.20656C135.356 0.804375 135.472 0.502735 135.704 0.301641C135.948 0.100547 136.297 0 136.75 0H139.398C139.712 0 139.956 0.0614453 140.13 0.184336C140.304 0.307227 140.392 0.474805 140.392 0.687071V8.27836C141.24 7.51867 142.076 6.96008 142.901 6.60258C143.737 6.23391 144.603 6.04957 145.497 6.04957C147.252 6.04957 148.628 6.57465 149.627 7.62481C150.638 8.67496 151.143 10.1273 151.143 11.9818V19.5731H151.962C152.543 19.5731 152.961 19.6681 153.217 19.858C153.473 20.0368 153.6 20.3272 153.6 20.7294C153.6 21.1316 153.484 21.4333 153.252 21.6343C153.02 21.8354 152.671 21.936 152.206 21.936H147.571C147.025 21.936 146.653 21.8522 146.456 21.6846C146.27 21.5059 146.177 21.1875 146.177 20.7294C146.177 20.2825 146.293 19.9809 146.526 19.8245C146.769 19.6569 147.223 19.5731 147.885 19.5731H148.495V12.6019C148.495 11.2948 148.187 10.3005 147.571 9.61899C146.955 8.92633 146.061 8.58 144.887 8.58C143.691 8.58 142.64 8.96543 141.733 9.73629C140.839 10.5072 140.392 11.4623 140.392 12.6019V19.5731H141.002C141.699 19.5731 142.169 19.6569 142.413 19.8245C142.657 19.9921 142.779 20.2937 142.779 20.7294C142.779 21.1875 142.68 21.5059 142.483 21.6846C142.297 21.8522 141.931 21.936 141.385 21.936H136.75C136.297 21.936 135.954 21.8354 135.722 21.6343C135.501 21.4333 135.39 21.1316 135.39 20.7294C135.39 20.2825 135.524 19.9809 135.791 19.8245C136.07 19.6569 136.604 19.5731 137.394 19.5731H137.76Z" fill="black"/>
<path d="M159.856 14.9312C159.949 16.54 160.513 17.7856 161.547 18.6682C162.592 19.5396 164.015 19.9753 165.816 19.9753C167.175 19.9753 168.656 19.629 170.259 18.9363C171.863 18.2325 172.833 17.8806 173.17 17.8806C173.518 17.8806 173.808 17.9867 174.041 18.199C174.273 18.4113 174.389 18.6738 174.389 18.9866C174.389 19.3106 174.267 19.6066 174.023 19.8748C173.779 20.1429 173.39 20.4054 172.856 20.6624C171.694 21.2098 170.492 21.6288 169.249 21.9192C168.017 22.2097 166.792 22.3549 165.572 22.3549C162.923 22.3549 160.803 21.6232 159.211 20.1597C157.62 18.685 156.824 16.7355 156.824 14.3112C156.824 11.8422 157.666 9.84243 159.351 8.31188C161.035 6.78133 163.231 6.01606 165.938 6.01606C168.389 6.01606 170.422 6.73106 172.037 8.16106C173.652 9.59106 174.459 11.3227 174.459 13.356C174.459 13.9816 174.32 14.4006 174.041 14.6128C173.774 14.8251 173.036 14.9312 171.828 14.9312H159.856ZM159.943 12.7359H171.288C171.113 11.4065 170.532 10.3396 169.545 9.5352C168.569 8.71965 167.367 8.31188 165.938 8.31188C164.393 8.31188 163.092 8.70289 162.034 9.48493C160.977 10.267 160.28 11.3506 159.943 12.7359Z" fill="black"/>
<path d="M60.4634 29.5789C59.6544 30.5176 59.0212 31.6226 58.6273 32.8614C57.0324 37.8783 59.9685 43.1886 65.1854 44.7225C66.4735 45.1012 67.7802 45.2142 69.0419 45.0942C66.5746 47.9573 62.4728 49.2734 58.5441 48.1183C53.3272 46.5845 50.3911 41.2741 51.986 36.2573C53.1872 32.4792 56.6155 29.9449 60.4634 29.5789Z" fill="black"/>
</svg>
