<svg width="19" height="18" viewBox="0 0 19 18" fill="none" xmlns="http://www.w3.org/2000/svg">
<path d="M7.50639 14.9412C6.02704 14.9484 4.57894 14.516 3.34557 13.6992C2.1122 12.8824 1.14907 11.7177 0.578381 10.3529C0.00756121 8.9881 -0.145056 7.48455 0.139744 6.0327C0.424543 4.58084 1.13388 3.24655 2.17787 2.19831C3.22197 1.1502 4.55372 0.435697 6.00422 0.145274C7.45473 -0.145026 8.95892 0.00182059 10.326 0.567236C11.6931 1.13279 12.8615 2.09129 13.683 3.32164C14.5045 4.55186 14.9424 5.99835 14.941 7.47764C14.9415 9.45225 14.1592 11.3464 12.7657 12.7453C11.3722 14.1442 9.4811 14.9338 7.50639 14.941V14.9412ZM7.50639 1.44666C6.31258 1.43951 5.14333 1.78705 4.14721 2.44507C3.15093 3.10322 2.37255 4.04228 1.91068 5.14324C1.44868 6.24421 1.32405 7.45747 1.5525 8.62934C1.78092 9.80122 2.35211 10.8789 3.19376 11.7257C4.03527 12.5726 5.10937 13.1506 6.27987 13.3865C7.45023 13.6222 8.66439 13.5052 9.76821 13.0502C10.872 12.5951 11.816 11.8228 12.4803 10.8306C13.1446 9.83861 13.4996 8.67166 13.4999 7.47755C13.5032 5.88349 12.874 4.3533 11.7505 3.22258C10.6268 2.0919 9.10049 1.45319 7.50643 1.44654L7.50639 1.44666Z" fill="#CACACA"/>
<path d="M17.046 18L12.071 13.052L13.0894 12.0337L18.0644 16.9797L17.046 18Z" fill="#CACACA"/>
</svg>
